<svg width="1024" height="1024" viewBox="0 0 1024 1024" fill="none" xmlns="http://www.w3.org/2000/svg">
<path d="M787.107 622.53C770.99 631.582 756.201 641.45 740.086 648.121C685.865 670.571 631.152 691.839 576.664 713.646C531.142 731.865 493.629 760.885 463.233 799.113C445.612 821.271 428.664 843.964 409.391 869.05C404.224 832.647 399.273 799.416 395.055 766.097C394.504 761.745 396.539 755.974 399.365 752.461C417.48 729.946 435.333 707.128 454.852 685.86C476.606 662.154 503.718 646.424 534.698 636.716C554.44 630.529 573.28 621.493 592.618 613.987C609.43 607.46 625.903 599.02 643.346 595.372C703.202 582.854 732.047 544.191 739.785 486.256C742.415 466.552 745.65 446.896 747.393 427.111C749.472 403.469 760.146 387.561 783.173 379.783C817.794 368.09 851.667 353.834 886.843 344.308C902.922 339.956 920.832 338.33 937.693 341.444C951.937 344.074 963.647 358.734 964.075 374.942C964.496 390.794 955.379 401.254 941.178 406.893C920.203 415.219 899.382 424.319 877.758 430.531C843.219 440.456 824.408 461.239 821.255 497.702C818.85 525.516 813.34 553.057 809.293 580.733C806.915 596.973 800.281 610.933 787.107 622.53Z" fill="#1FCEEC"/>
<path d="M34.0461 564.649C30.2621 566.214 25.9214 568.416 23.5677 567.091C4.41833 556.299 -4.45325 537.48 2.18535 515.014C9.5889 489.959 19.3446 465.512 29.4821 441.39C34.7764 428.797 46.5312 423.116 60.2626 422.626C78.3286 421.98 96.4082 421.665 114.468 420.896C132.234 420.139 145.495 411.848 153.33 395.768C160.65 380.746 167.481 365.486 174.593 350.361C204.325 287.133 255.6 249.824 321.074 230.918C350.127 222.528 378.096 229.348 404.957 242.891C438.42 259.765 472.318 275.814 506.368 291.485C531.95 303.259 558.767 304.812 585.752 296.665C620.751 286.099 655.419 274.397 690.556 264.316C711.378 258.342 731.099 261.146 745.99 279.189C761.623 298.131 756.53 321.69 733.412 329.798C677.161 349.514 620.719 368.815 563.693 386.097C552.563 389.472 537.412 385.435 525.888 380.592C486.352 363.972 447.209 346.286 408.644 327.511C348.14 298.054 298.563 304.915 254.33 356.087C234.031 379.57 218.578 408.174 205.201 436.48C188.653 471.493 174.46 483.438 135.87 482.561C120.971 482.222 106.089 481.054 91.2045 480.18C76.2631 479.303 66.1272 485.779 60.5176 499.661C51.8859 521.023 43.1199 542.329 34.0461 564.649Z" fill="#1FCEEC"/>
<path d="M434.722 103.394C465.005 118.726 493.97 134.544 523.957 148.096C551.705 160.636 580.284 156.78 608.741 147.998C651.874 134.686 695.194 121.937 738.628 109.638C763.164 102.691 785.019 111.536 797.478 133.722C800.257 138.673 800.224 148.941 796.897 152.826C789.539 161.413 780.31 170.751 770.002 174.075C701.68 196.108 633.191 217.794 563.946 236.619C550.844 240.179 533.265 232.425 519.248 226.408C484.406 211.454 450.302 194.754 416.142 178.255C383.335 162.41 348.986 160.181 314.272 167.899C287.887 173.767 261.69 181.323 236.288 190.547C197.157 204.755 168.866 231.785 151.366 269.8C149.858 273.075 148.959 277.313 146.385 279.279C139.54 284.51 130.806 293.568 124.905 292.188C116.935 290.328 106.234 280.891 105.019 273.364C102.444 257.407 101.573 239.376 106.502 224.326C125.381 166.695 167.191 131.577 224.271 114.157C257.028 104.161 290.183 95.4638 323.173 86.2294C362.55 75.2082 399.18 82.5788 434.722 103.394Z" fill="#1FCEEC"/>
<path d="M261.723 966.364C265.022 958.756 267.126 951.546 271.278 945.82C285.814 925.776 289.144 904.085 284.037 880.203C277.145 848.004 271.361 815.567 264.442 783.374C257.232 749.827 263.345 718.018 279.566 689.039C301.158 650.478 323.761 612.252 348.982 576.01C378.113 534.143 420.501 508.739 468.732 493.982C492.068 486.843 513.651 494.925 531.456 510.625C545.785 523.262 545.373 541.591 531.269 554.643C525.084 560.366 517.513 564.927 509.936 568.752C488.979 579.334 467.882 589.687 446.473 599.317C421.459 610.564 400.165 626.849 385.61 649.63C367.905 677.338 351.332 706.067 337.646 735.902C331.883 748.468 332.233 765.337 334.184 779.652C339.243 816.765 346.203 853.654 353.49 890.415C356.931 907.79 356.844 924.433 351.292 941.142C342.479 967.666 329.605 991.83 309.305 1011.41C301.036 1019.38 290.482 1028.28 279.506 1021.72C271.426 1016.89 265.252 1006.02 262.137 996.557C259.232 987.735 261.486 977.214 261.723 966.364Z" fill="#1FCEEC"/>
<path d="M301.628 509.129C295.78 544.531 276.553 572.857 260.849 602.813C232.121 657.618 203.981 712.731 175.608 767.726C174.573 769.733 173.795 771.874 172.707 773.848C167.779 782.793 164.476 795.086 151.735 793.894C139.429 792.744 133.338 781.765 131.772 770.896C130.094 759.261 128.299 745.647 132.623 735.477C157.006 678.115 183.276 621.554 208.774 564.664C221.155 537.038 232.631 508.983 245.887 481.791C249.604 474.164 257.174 465.781 264.78 463.321C275.269 459.929 283.242 468.87 288.126 478.011C293.315 487.733 297.398 498.048 301.628 509.129Z" fill="#1FCEEC"/>
<path d="M489.106 831.877C500.794 808.13 519.731 790.802 540.608 775.695C578.317 748.418 620.161 729.664 665.269 718.285C684.485 713.439 703.115 715.365 720.155 725.702C746.884 741.918 773.252 742.841 800.859 727.408C813.23 720.49 827.115 716.279 843.73 709.429C825.498 747.066 798.34 767.902 761.354 772.428C743.773 774.577 724.68 770.809 707.257 766.081C687.735 760.778 669.204 758.707 650.427 766.601C600.117 787.75 549.913 809.162 499.654 830.435C497.173 831.483 494.557 832.208 490.751 832.745C489.503 832.404 489.106 831.877 489.106 831.877Z" fill="#1FCEEC"/>
<path d="M637.904 831.295C591.212 856.559 552.097 890.275 515.104 926.176C486.357 954.072 453.923 975.209 417.653 991.311C401.992 998.264 386.668 1005.97 369.763 1014C366.821 1010.1 363.724 1005.98 360.329 1001.48C376.479 982.675 391.849 965.409 415.657 956.278C453.407 941.8 483.608 915.458 512.311 887.637C525.947 874.418 539.146 860.746 552.622 847.358C582.298 817.876 618.707 799.765 658.38 789.261C670.622 786.019 685.248 791.799 698.782 793.447C699.313 795.476 699.842 797.504 700.372 799.531C695.532 803.033 691.081 807.363 685.775 809.883C670.29 817.237 654.466 823.87 637.904 831.295Z" fill="#1FCEEC"/>
<path d="M898.976 497.927C915.763 490.051 931.813 482.985 947.485 475.16C972.122 462.862 994.354 465.153 1012.43 482.526C1029.24 498.692 1027.91 520.591 1007.25 530.801C979.4 544.562 950.258 555.715 921.602 567.824C919.853 568.562 916.653 568.733 915.546 567.676C904.5 557.171 892.057 547.549 883.37 535.295C873.617 521.539 879.758 509.096 898.976 497.927Z" fill="white"/>
<path d="M93.231 558.122C96.6182 552.214 98.5479 544.891 102.955 542.801C111.327 538.835 121.673 534.866 130.173 536.44C139.848 538.233 148.796 560.152 144.864 570.032C132.359 601.469 119.265 632.703 105.235 663.485C100.055 674.846 90.6343 674.571 81.3569 666.463C64.8675 652.048 57.6873 637.24 69.7318 615.397C79.4694 597.737 85.3174 577.926 93.231 558.122Z" fill="white"/>
<path d="M889.134 624.308C913.655 615.775 934.905 600.824 962.218 597.983C958.613 614.541 953.218 625.609 937.724 632.297C883.799 655.58 830.576 680.489 776.9 704.356C772.215 706.44 766.153 705.422 760.729 705.844C761.269 699.881 759.576 691.845 762.8 688.371C770.539 680.03 779.671 671.856 789.869 667.13C822.241 652.127 855.358 638.732 889.134 624.308Z" fill="#1FCEEC"/>
<path d="M345.13 440.343C327.62 426.16 322.04 410.105 328.256 393.593C334.075 378.132 350.895 369.091 371.734 370.758C391.369 372.329 407.57 380.181 416.38 398.775C425.434 417.88 417.032 438.064 397.015 444.744C379.708 450.512 362.398 449.842 345.13 440.343Z" fill="white"/>
<path d="M811.659 282.814C795.516 270.452 790.371 256.458 796.1 242.066C801.467 228.59 816.973 220.708 836.187 222.163C854.288 223.533 869.223 230.376 877.348 246.584C885.691 263.236 877.947 280.829 859.49 286.65C843.539 291.681 827.576 291.094 811.659 282.814Z" fill="white"/>
<path d="M536.789 94.1765C516.205 82.0083 509.916 67.6731 516.701 50.2773C522.863 34.4706 540.956 25.9244 560.94 31.7029C570.448 34.4525 579.783 40.2657 587.289 46.8636C596.417 54.8877 597.851 66.2711 593.967 78.0921C590.094 89.889 581.143 96.0191 569.794 96.7993C559.223 97.5252 548.452 95.3898 536.789 94.1765Z" fill="white"/>
<path d="M690.449 62.0983C675.942 68.7536 662.446 68.5997 648.995 62.2025C635.359 55.7177 627.8 41.9137 629.509 26.6397C631.004 13.2854 639.752 4.71204 655.515 1.1535C673.569 -2.92116 691.07 3.95746 701.636 19.2842C712.33 34.7921 708.842 49.2737 690.449 62.0983Z" fill="white"/>
<path d="M658.405 509.584C640.318 517.131 623.492 516.954 606.725 509.703C589.726 502.349 580.299 486.701 582.433 469.38C584.295 454.239 595.203 444.52 614.853 440.487C637.363 435.866 659.18 443.665 672.354 461.042C685.684 478.624 681.336 495.043 658.405 509.584Z" fill="white"/>
<path d="M192.914 839.817C195.207 838.155 196.663 836.773 198.329 836.437C211.452 833.774 233.661 851.105 239.334 868.276C243.651 881.344 234.826 899.235 221.055 905.324C211.027 909.759 196.776 904.271 191.734 892.537C184.371 875.408 182.147 857.809 192.914 839.817Z" fill="white"/>
<path d="M744.789 840.596C736.593 843.14 729.395 845.328 718.693 848.583C750.742 802.985 793.379 781.747 845.532 768.308C817.407 803.824 783.836 825.124 744.789 840.596Z" fill="white"/>
<path d="M68.4013 332.042C80.1471 312.194 89.1605 308.252 103.593 315.751C118.963 323.734 126.42 346.824 119.605 365.332C114.322 379.682 101.799 389.842 91.6515 388.008C75.6887 385.13 64.4106 367.915 65.1786 346.919C65.3475 342.301 66.9589 337.737 68.4013 332.042Z" fill="white"/>
<path d="M898.788 682.787C901.863 680.123 904.234 678.089 907.498 675.299C911.213 679.532 914.704 683.502 919.481 688.946C903.518 702.469 887.914 715.688 871.909 729.246C868.204 724.975 865.284 721.611 861.215 716.925C873.7 705.579 885.892 694.498 898.788 682.787Z" fill="#1FCEEC"/>
<path d="M584.685 889.725C593.854 881.738 602.282 874.364 610.997 866.744C616.472 895.264 587.831 921.399 557.962 913.814C567.176 905.493 575.563 897.916 584.685 889.725Z" fill="white"/>
<path d="M449.483 917.196C447.067 919.14 445.368 920.468 443.208 922.154C442.845 889.578 467.654 867.446 498.124 874.429C481.564 888.995 465.881 902.786 449.483 917.196Z" fill="white"/>
<path d="M681.951 844.503C685.873 844.921 688.783 845.407 693.712 846.234C675.29 862.839 658.433 878.031 640.997 893.747C636.679 868.619 653.282 848.897 681.951 844.503Z" fill="#1FCEEC"/>
<path d="M489.714 832.657C489.445 833.432 488.969 833.952 488.495 834.477C488.363 833.785 488.234 833.092 488.605 832.14C489.108 831.876 489.505 832.402 489.714 832.657Z" fill="#1FCEEC"/>
</svg>
